# xmcd
#
# Track frame offsets: 
#        187
#        13947
#        32347
#        50697
#        62157
#        78947
#        98052
#        111030
#        125322
#        138732
#
# Disc length: 2070 seconds
#
# Revision: 2
# Processed by: cddbd v1.5PL3 Copyright (c) Steve Scherf et al.
# Submitted via: ExactAudioCopy v0.95a4
#
DISCID=8008140a
DTITLE=John Anderson - Country 'Til I Die
DYEAR=1994
DGENRE=Country
TTITLE0=Country 'Til I Die
TTITLE1=Bend It Until It Breaks
TTITLE2=The Good
TTITLE3=The Real Deal
TTITLE4=Keep Your Hands To Yourself
TTITLE5=Mississippi Moon
TTITLE6=It Ain't Pneumonia, It's The Blues
TTITLE7=Where The Children Have Gone
TTITLE8=Swingin'
TTITLE9=Hillbilly With A Heartache
EXTD=
EXTT0=
EXTT1=
EXTT2=
EXTT3=
EXTT4=
EXTT5=
EXTT6=
EXTT7=
EXTT8=
EXTT9=
PLAYORDER=
